HIERARCHY
ROOT reference
{
  OFFSET 0 0 0
  CHANNELS 6 Xposition Yposition Zposition Zrotation Xrotation Yrotation
  JOINT Hips
  {
    OFFSET 352.076 86.5813 226.294
    CHANNELS 3 Zrotation Xrotation Yrotation
    JOINT RightUpLeg
    {
      OFFSET -9.24446 -1.53332 -0.0100408
      CHANNELS 3 Zrotation Xrotation Yrotation
      JOINT RightLeg
      {
        OFFSET 0.0379954 -41.8775 0.0555708
        CHANNELS 3 Zrotation Xrotation Yrotation
        JOINT RightFoot
        {
          OFFSET 0.0737403 -43.7597 -0.208372
          CHANNELS 3 Zrotation Xrotation Yrotation
          End Site
          {
            OFFSET 0 -7.69 17.5
          }
        }
      }
    }
    JOINT LeftUpLeg
    {
      OFFSET 9.31004 -1.65148 -0.0333589
      CHANNELS 3 Zrotation Xrotation Yrotation
      JOINT LeftLeg
      {
        OFFSET 0.0881386 -41.8624 -0.0616493
        CHANNELS 3 Zrotation Xrotation Yrotation
        JOINT LeftFoot
        {
          OFFSET 0.763074 -39.9619 0.249975
          CHANNELS 3 Zrotation Xrotation Yrotation
          End Site
          {
            OFFSET 0 -7.69 17.5
          }
        }
      }
    }
    JOINT Spine
    {
      OFFSET 0.105097 14.2958 0.096313
      CHANNELS 3 Zrotation Xrotation Yrotation
      JOINT Spine1
      {
        OFFSET 0.0609256 9.72986 0.0283835
        CHANNELS 3 Zrotation Xrotation Yrotation
        JOINT Spine2
        {
          OFFSET 0.0349843 10.1145 -0.0203086
          CHANNELS 3 Zrotation Xrotation Yrotation
          JOINT Spine3
          {
            OFFSET 0.0323734 9.71864 0.0196425
            CHANNELS 3 Zrotation Xrotation Yrotation
            JOINT Neck
            {
              OFFSET 0.219168 10.3708 0.0833364
              CHANNELS 3 Zrotation Xrotation Yrotation
              JOINT Head
              {
                OFFSET 0.200748 9.48753 0.0966912
                CHANNELS 3 Zrotation Xrotation Yrotation
                End Site
                {
                  OFFSET 0 15.95 0
                }
              }
            }
            JOINT RightShoulder
            {
              OFFSET -3.14734 6.94135 0.063802
              CHANNELS 3 Zrotation Xrotation Yrotation
              JOINT RightArm
              {
                OFFSET -12.765 0.137663 0.228635
                CHANNELS 3 Zrotation Xrotation Yrotation
                JOINT RightForeArm
                {
                  OFFSET -26.5344 -0.389186 -0.00603507
                  CHANNELS 3 Zrotation Xrotation Yrotation
                  JOINT RightHand
                  {
                    OFFSET -26.1352 -0.0585664 0.0704552
                    CHANNELS 3 Zrotation Xrotation Yrotation
                    JOINT RightHandThumb1
                    {
                      OFFSET -2.48905 0.190105 3.12053
                      CHANNELS 3 Zrotation Xrotation Yrotation
                      JOINT RightHandThumb2
                      {
                        OFFSET -3.68274 0 0
                        CHANNELS 3 Zrotation Xrotation Yrotation
                        JOINT RightHandThumb3
                        {
                          OFFSET -2.55832 0 0
                          CHANNELS 3 Zrotation Xrotation Yrotation
                          End Site
                          {
                            OFFSET -2.194 0 0
                          }
                        }
                      }
                    }
                    JOINT RightInHandIndex
                    {
                      OFFSET -3.22368 0.508421 1.97842
                      CHANNELS 3 Zrotation Xrotation Yrotation
                      JOINT RightHandIndex1
                      {
                        OFFSET -5.21684 -0.091368 0.999158
                        CHANNELS 3 Zrotation Xrotation Yrotation
                        JOINT RightHandIndex2
                        {
                          OFFSET -3.61937 0 0
                          CHANNELS 3 Zrotation Xrotation Yrotation
                          JOINT RightHandIndex3
                          {
                            OFFSET -2.0521 0 0
                            CHANNELS 3 Zrotation Xrotation Yrotation
                            End Site
                            {
                              OFFSET -1.805 0 0
                            }
                          }
                        }
                      }
                    }
                    JOINT RightInHandMiddle
                    {
                      OFFSET -3.38211 0.517263 0.756737
                      CHANNELS 3 Zrotation Xrotation Yrotation
                      JOINT RightHandMiddle1
                      {
                        OFFSET -5.17411 -0.084 0.313895
                        CHANNELS 3 Zrotation Xrotation Yrotation
                        JOINT RightHandMiddle2
                        {
                          OFFSET -3.94947 0 0
                          CHANNELS 3 Zrotation Xrotation Yrotation
                          JOINT RightHandMiddle3
                          {
                            OFFSET -2.47579 0 0
                            CHANNELS 3 Zrotation Xrotation Yrotation
                            End Site
                            {
                              OFFSET -1.975 0 0
                            }
                          }
                        }
                      }
                    }
                    JOINT RightInHandRing
                    {
                      OFFSET -3.36516 0.537895 -0.128947
                      CHANNELS 3 Zrotation Xrotation Yrotation
                      JOINT RightHandRing1
                      {
                        OFFSET -4.63474 -0.022105 -0.478947
                        CHANNELS 3 Zrotation Xrotation Yrotation
                        JOINT RightHandRing2
                        {
                          OFFSET -3.44238 0 0
                          CHANNELS 3 Zrotation Xrotation Yrotation
                          JOINT RightHandRing3
                          {
                            OFFSET -2.3881 0 0
                            CHANNELS 3 Zrotation Xrotation Yrotation
                            End Site
                            {
                              OFFSET -1.857 0 0
                            }
                          }
                        }
                      }
                    }
                    JOINT RightInHandPinky
                    {
                      OFFSET -3.16105 0.469368 -1.20179
                      CHANNELS 3 Zrotation Xrotation Yrotation
                      JOINT RightHandPinky1
                      {
                        OFFSET -4.14105 -0.022105 -1.09053
                        CHANNELS 3 Zrotation Xrotation Yrotation
                        JOINT RightHandPinky2
                        {
                          OFFSET -2.75653 0 0
                          CHANNELS 3 Zrotation Xrotation Yrotation
                          JOINT RightHandPinky3
                          {
                            OFFSET -1.74189 0 0
                            CHANNELS 3 Zrotation Xrotation Yrotation
                            End Site
                            {
                              OFFSET -1.645 0 0
                            }
                          }
                        }
                      }
                    }
                  }
                }
              }
            }
            JOINT LeftShoulder
            {
              OFFSET 3.26179 6.89719 -0.0373062
              CHANNELS 3 Zrotation Xrotation Yrotation
              JOINT LeftArm
              {
                OFFSET 12.4839 0.0196156 -0.0323257
                CHANNELS 3 Zrotation Xrotation Yrotation
                JOINT LeftForeArm
                {
                  OFFSET 26.5039 -0.120667 0.247609
                  CHANNELS 3 Zrotation Xrotation Yrotation
                  JOINT LeftHand
                  {
                    OFFSET 25.9984 -0.032285 0.00286418
                    CHANNELS 3 Zrotation Xrotation Yrotation
                    JOINT LeftHandThumb1
                    {
                      OFFSET 2.48905 0.190105 3.12053
                      CHANNELS 3 Zrotation Xrotation Yrotation
                      JOINT LeftHandThumb2
                      {
                        OFFSET 3.68274 0 0
                        CHANNELS 3 Zrotation Xrotation Yrotation
                        JOINT LeftHandThumb3
                        {
                          OFFSET 2.55832 0 0
                          CHANNELS 3 Zrotation Xrotation Yrotation
                          End Site
                          {
                            OFFSET 2.194 0 0
                          }
                        }
                      }
                    }
                    JOINT LeftInHandIndex
                    {
                      OFFSET 3.22368 0.508421 1.97842
                      CHANNELS 3 Zrotation Xrotation Yrotation
                      JOINT LeftHandIndex1
                      {
                        OFFSET 5.21684 -0.091368 0.999158
                        CHANNELS 3 Zrotation Xrotation Yrotation
                        JOINT LeftHandIndex2
                        {
                          OFFSET 3.61937 0 0
                          CHANNELS 3 Zrotation Xrotation Yrotation
                          JOINT LeftHandIndex3
                          {
                            OFFSET 2.0521 0 0
                            CHANNELS 3 Zrotation Xrotation Yrotation
                            End Site
                            {
                              OFFSET 1.805 0 0
                            }
                          }
                        }
                      }
                    }
                    JOINT LeftInHandMiddle
                    {
                      OFFSET 3.38211 0.517263 0.756737
                      CHANNELS 3 Zrotation Xrotation Yrotation
                      JOINT LeftHandMiddle1
                      {
                        OFFSET 5.17411 -0.084 0.313895
                        CHANNELS 3 Zrotation Xrotation Yrotation
                        JOINT LeftHandMiddle2
                        {
                          OFFSET 3.94947 0 0
                          CHANNELS 3 Zrotation Xrotation Yrotation
                          JOINT LeftHandMiddle3
                          {
                            OFFSET 2.47579 0 0
                            CHANNELS 3 Zrotation Xrotation Yrotation
                            End Site
                            {
                              OFFSET 1.975 0 0
                            }
                          }
                        }
                      }
                    }
                    JOINT LeftInHandRing
                    {
                      OFFSET 3.36516 0.537895 -0.128947
                      CHANNELS 3 Zrotation Xrotation Yrotation
                      JOINT LeftHandRing1
                      {
                        OFFSET 4.63474 -0.022105 -0.478947
                        CHANNELS 3 Zrotation Xrotation Yrotation
                        JOINT LeftHandRing2
                        {
                          OFFSET 3.44238 0 0
                          CHANNELS 3 Zrotation Xrotation Yrotation
                          JOINT LeftHandRing3
                          {
                            OFFSET 2.3881 0 0
                            CHANNELS 3 Zrotation Xrotation Yrotation
                            End Site
                            {
                              OFFSET 1.857 0 0
                            }
                          }
                        }
                      }
                    }
                    JOINT LeftInHandPinky
                    {
                      OFFSET 3.16105 0.469368 -1.20179
                      CHANNELS 3 Zrotation Xrotation Yrotation
                      JOINT LeftHandPinky1
                      {
                        OFFSET 4.14105 -0.022105 -1.09053
                        CHANNELS 3 Zrotation Xrotation Yrotation
                        JOINT LeftHandPinky2
                        {
                          OFFSET 2.75653 0 0
                          CHANNELS 3 Zrotation Xrotation Yrotation
                          JOINT LeftHandPinky3
                          {
                            OFFSET 1.74189 0 0
                            CHANNELS 3 Zrotation Xrotation Yrotation
                            End Site
                            {
                              OFFSET 1.645 0 0
                            }
                          }
                        }
                      }
                    }
                  }
                }
              }
            }
          }
        }
      }
    }
  }
}
MOTION
Frames: 2
Frame Time: 0.00833333
7.500000000000000000e+02 0.000000000000000000e+00 0.000000000000000000e+00 0.000000000000000000e+00 0.000000000000000000e+00 0.000000000000000000e+00 2.272839842613185279e+00 9.427482378679290065e+00 2.447031742707986268e+01 -2.352747395203148173e+01 -1.301499561366781599e+01 -2.653962161013910404e+01 2.351736421322742743e+00 1.194993061071840579e+01 -1.923794957759349611e+00 9.338765528329515675e-01 -6.358709504300877668e+00 -8.732229141506277159e+00 -3.553015848378076047e+00 -2.352310831951236736e+01 -7.855857303838313044e+00 1.410584486335113752e+01 7.177858879203785625e-02 -1.290702342192226837e+01 -3.148513513326845814e+00 7.985439983494300620e+00 -8.573978973965207473e+00 2.744066826236635670e+00 5.905979768239933314e+00 1.986481509351963659e+00 6.857456881986527808e-01 1.660471647720425548e+00 3.767816253955837413e-01 1.181189737793285177e+00 2.765139956534425902e+00 7.523754220532616888e-01 1.052245986863514088e-01 8.810811652171977870e-02 -9.542097417363253342e-01 -2.157540081785093711e-01 1.155737215572442800e+00 -1.462288118839703266e+01 1.124781095996643776e+00 -5.062332413466876346e+00 -7.804986848597601501e+00 1.416311571454917484e+00 -6.126643380735413480e+00 3.633926648138130044e+00 2.235873197160929848e+01 2.867034391709671226e+01 8.615444985069441231e+00 1.644191520086767611e+01 -3.449685184571391261e+01 -2.473942481627407020e+01 -5.992392382055439448e+00 -4.638277040017282360e+00 1.080299146421245915e+00 0.000000000000000000e+00 0.000000000000000000e+00 0.000000000000000000e+00 6.081125383976012312e-15 8.096643439349224395e-20 0.000000000000000000e+00 -3.104973140068400424e-15 4.742645778856660339e-15 0.000000000000000000e+00 6.688600263458668157e-15 -3.627397365425889058e-16 4.648816266443266343e-15 0.000000000000000000e+00 0.000000000000000000e+00 0.000000000000000000e+00 0.000000000000000000e+00 -1.148894018316298044e-14 -1.944017565489220164e-14 0.000000000000000000e+00 3.167738793808761950e-15 -4.768895136855433127e-15 6.688600263458668157e-15 -3.627397365425889058e-16 4.648816266443266343e-15 0.000000000000000000e+00 1.183007782659873187e-15 -1.041343978518161619e-15 0.000000000000000000e+00 -1.541439557673868629e-15 -1.333077238963791742e-14 0.000000000000000000e+00 -5.865793706569633157e-15 -8.301074186621233648e-15 6.688600263458668157e-15 -3.627397365425889058e-16 4.648816266443266343e-15 0.000000000000000000e+00 0.000000000000000000e+00 0.000000000000000000e+00 0.000000000000000000e+00 -1.136834505256550339e-15 -3.069726319920895552e-15 0.000000000000000000e+00 -1.804553552349955755e-15 -1.256459252525313881e-14 6.688600263458668157e-15 -3.627397365425889058e-16 4.648816266443266343e-15 0.000000000000000000e+00 0.000000000000000000e+00 0.000000000000000000e+00 0.000000000000000000e+00 1.868166459120335751e-14 5.801801444086605512e-14 0.000000000000000000e+00 3.330441939930256199e-15 -9.532989672491594665e-15 2.113056284264430484e+00 2.372932591682903603e+00 5.464027234071353156e+00 5.727720615726537901e+00 2.269418500523229021e+00 1.390837200386801342e+01 2.378832955027688456e+01 -1.080763654171616395e+01 7.483036540067544706e+01 1.950999645627505608e+00 -5.181225220899888129e+00 1.863475392203988079e+01 0.000000000000000000e+00 0.000000000000000000e+00 0.000000000000000000e+00 9.410118879163534652e-15 -4.548153631923269408e-15 0.000000000000000000e+00 1.158641795386162935e-14 -3.035501009689991802e-15 0.000000000000000000e+00 2.406328780733843397e-15 2.180384352972340473e-15 -1.181787436116440611e-15 0.000000000000000000e+00 0.000000000000000000e+00 0.000000000000000000e+00 0.000000000000000000e+00 1.286612292906494007e-16 -7.104810125650881984e-16 0.000000000000000000e+00 -4.153142512301006894e-15 1.361394775897351120e-14 2.406328780733843397e-15 2.180384352972340473e-15 -1.181787436116440611e-15 0.000000000000000000e+00 1.993843706689854538e-16 6.992178759945461491e-15 0.000000000000000000e+00 1.701996245468524738e-15 8.836615169620750867e-15 0.000000000000000000e+00 -2.693265896841711775e-15 1.591428941036657518e-14 2.406328780733843397e-15 2.180384352972340473e-15 -1.181787436116440611e-15 0.000000000000000000e+00 0.000000000000000000e+00 0.000000000000000000e+00 0.000000000000000000e+00 -7.438874832692877911e-16 5.878607457875917416e-16 0.000000000000000000e+00 -1.045899164042253883e-15 1.388196222308432471e-14 2.406328780733843397e-15 2.180384352972340473e-15 -1.181787436116440611e-15 0.000000000000000000e+00 0.000000000000000000e+00 0.000000000000000000e+00 0.000000000000000000e+00 -1.362437326513668667e-15 5.365093269134828615e-15 0.000000000000000000e+00 -4.386694539086062895e-16 1.966049555337132871e-15
7.500000000000000000e+02 0.000000000000000000e+00 0.000000000000000000e+00 0.000000000000000000e+00 0.000000000000000000e+00 0.000000000000000000e+00 2.274427769017163925e+00 9.443444964336354275e+00 2.433903653330230199e+01 -2.341206534787317395e+01 -1.308838355241832296e+01 -2.644742713962787661e+01 2.331050471296578941e+00 1.195029213164339943e+01 -1.884272979514668211e+00 9.575655196976819994e-01 -6.350527664132235017e+00 -8.694997190570871837e+00 -3.516593882660891346e+00 -2.356372431491531927e+01 -7.836265982087723181e+00 1.411911284653478660e+01 1.493214758111364171e-01 -1.289284776883185479e+01 -3.093174682469054027e+00 7.963580913329489697e+00 -8.489645527060734054e+00 2.807883463492355958e+00 5.877150992404001073e+00 1.801541771028952743e+00 6.984064788989573502e-01 1.650455875604133205e+00 3.309535797216252018e-01 1.202359064722935411e+00 2.749437394098394272e+00 6.784654567931996949e-01 1.008919130715148771e-01 8.797146870608128777e-02 -9.343698997073455192e-01 -2.366866776666789185e-01 1.133856519267452789e+00 -1.451469504133903854e+01 1.056955984337117016e+00 -5.031160324538820561e+00 -7.518726928197593473e+00 1.482612721205040174e+00 -6.039619663311892594e+00 3.467221383359891718e+00 2.262816674917429083e+01 2.851375989117887499e+01 8.268987875824189260e+00 1.671702082274100221e+01 -3.409915968691812793e+01 -2.394803454498108053e+01 -6.137912495778343747e+00 -4.804483571982633094e+00 1.512528749143002393e+00 0.000000000000000000e+00 0.000000000000000000e+00 0.000000000000000000e+00 5.996166831593906422e-15 1.158904517523578789e-16 0.000000000000000000e+00 -2.921533429454193588e-15 4.553975186122214567e-15 0.000000000000000000e+00 6.570141738765149863e-15 -3.801122687741294935e-16 4.409475608780753956e-15 0.000000000000000000e+00 0.000000000000000000e+00 0.000000000000000000e+00 0.000000000000000000e+00 -1.122056307512297758e-14 -1.853236305612863503e-14 0.000000000000000000e+00 3.189788065435979424e-15 -4.510844808267459179e-15 6.570141738765149863e-15 -3.801122687741294935e-16 4.409475608780753956e-15 0.000000000000000000e+00 8.642391582856926145e-16 -1.117989392054738664e-15 0.000000000000000000e+00 -1.408728902841481040e-15 -1.240705828920991676e-14 0.000000000000000000e+00 -5.627843584388407679e-15 -8.056075294587286715e-15 6.570141738765149863e-15 -3.801122687741294935e-16 4.409475608780753956e-15 0.000000000000000000e+00 0.000000000000000000e+00 0.000000000000000000e+00 0.000000000000000000e+00 -1.145315564970687951e-15 -2.831588559678347675e-15 0.000000000000000000e+00 -1.753605245815954510e-15 -1.191935703569786207e-14 6.570141738765149863e-15 -3.801122687741294935e-16 4.409475608780753956e-15 0.000000000000000000e+00 0.000000000000000000e+00 0.000000000000000000e+00 0.000000000000000000e+00 1.781137433183270587e-14 5.552052147297752284e-14 0.000000000000000000e+00 3.135209330844887819e-15 -9.236228637811645469e-15 2.164185742437906068e+00 2.385464983956140816e+00 5.314454333561353216e+00 5.930733040306461312e+00 2.291702115404962825e+00 1.362890139948832058e+01 2.424332835588464263e+01 -1.023452896364941722e+01 7.522251966188122196e+01 1.858794928948603209e+00 -5.092867677695989137e+00 1.864720779446878396e+01 0.000000000000000000e+00 0.000000000000000000e+00 0.000000000000000000e+00 8.905587081017442180e-15 -4.218975877896974656e-15 0.000000000000000000e+00 1.112724407545079988e-14 -2.811247365595286427e-15 0.000000000000000000e+00 2.264346515246967145e-15 2.163278971938696779e-15 -1.220878543297315420e-15 0.000000000000000000e+00 0.000000000000000000e+00 0.000000000000000000e+00 0.000000000000000000e+00 1.600370060371761794e-16 -1.916877226045142887e-16 0.000000000000000000e+00 -4.169942346970713029e-15 1.347538440687226676e-14 2.264346515246967145e-15 2.163278971938696779e-15 -1.220878543297315420e-15 0.000000000000000000e+00 3.413588328788600170e-16 7.450211399789128575e-15 0.000000000000000000e+00 1.602919924466587674e-15 8.873942543064408603e-15 0.000000000000000000e+00 -2.535177344740626078e-15 1.549364724211898307e-14 2.264346515246967145e-15 2.163278971938696779e-15 -1.220878543297315420e-15 0.000000000000000000e+00 0.000000000000000000e+00 0.000000000000000000e+00 0.000000000000000000e+00 -7.218129438130470958e-16 1.167393754547915192e-15 0.000000000000000000e+00 -7.570208428566261367e-16 1.331114969916360886e-14 2.264346515246967145e-15 2.163278971938696779e-15 -1.220878543297315420e-15 0.000000000000000000e+00 0.000000000000000000e+00 0.000000000000000000e+00 0.000000000000000000e+00 -1.381762834589418484e-15 5.582558038778065596e-15 0.000000000000000000e+00 -3.862739875476759282e-16 2.033152601313378701e-15
